<svg width="81" height="81" xmlns="http://www.w3.org/2000/svg">

 <g>
  <title>background</title>
  <rect fill="none" id="canvas_background" height="602" width="802" y="-1" x="-1"/>
 </g>
 <g>
  <title>Layer 1</title>
  <path id="svg_1" fill="#2287aa" d="m56.9608,0l-33.9216,0l-7.2727,7.27273l-4.8574,0c-6.02493,0 -10.9091,4.88417 -10.9091,10.90907l0,50.9091c0,6.0249 4.88417,10.9091 10.9091,10.9091l47.2727,0l0,-7.2727l-47.2727,0c-2.00832,0 -3.63637,-1.6281 -3.63637,-3.6364l0,-50.9091c0,-2.0083 1.62805,-3.6363 3.63637,-3.6363l7.8699,0l7.2727,-7.27277l27.8966,0l7.2727,7.27277l7.8699,0c2.0083,0 3.6364,1.628 3.6364,3.6363l0,40l7.2727,0l0,-40c0,-6.0249 -4.8842,-10.90907 -10.9091,-10.90907l-4.8574,0l-7.2727,-7.27273zm0.4039,53.5077c2.9048,-3.7285 4.6353,-8.4165 4.6353,-13.5077c0,-12.1478 -9.8522,-22 -22,-22c-12.1478,0 -22,9.8522 -22,22c0,12.1478 9.8522,22 22,22c5.0912,0 9.7792,-1.7305 13.5077,-4.6353l4.3668,4.3667l-0.6428,0.6428l16.9435,16.9434l5.1426,-5.1426l-16.9435,-16.9434l-0.6429,0.6429l-4.3667,-4.3668zm-46.3647,-29.5077c0,-2.2091 1.7909,-4 4,-4c2.2091,0 4,1.7909 4,4c0,2.2091 -1.7909,4 -4,4c-2.2091,0 -4,-1.7909 -4,-4zm20.3913,13.513c-1.6261,0 -2.9652,0.8609 -2.9652,2.487c0,1.6261 1.3391,2.487 2.9652,2.487l13.0087,0c1.6261,0 2.9652,-0.8609 2.9652,-2.487c0,-1.6739 -1.3391,-2.487 -2.9652,-2.487l-13.0087,0zm2.8217,12.674l12.9609,0c1.6739,0 3.0131,-0.8609 2.9652,-2.487c0,-1.6739 -1.3391,-2.487 -2.9652,-2.487l-12.9609,0c-1.626,0 -2.9652,0.8609 -2.9652,2.487c0,1.6739 1.3392,2.487 2.9652,2.487zm0,-15.4l12.9609,0c1.6739,0 3.0131,-0.8609 2.9652,-2.487c0,-1.6739 -1.3391,-2.487 -2.9652,-2.487l-12.9609,0c-1.626,0 -2.9652,0.8609 -2.9652,2.487c0,1.6739 1.3392,2.487 2.9652,2.487z" clip-rule="evenodd" fill-rule="evenodd"/>
 </g>
</svg>